<mxfile host="app.diagrams.net" agent="Mozilla/5.0 (Macintosh; Intel Mac OS X 10_15_7) AppleWebKit/537.36 (KHTML, like Gecko) Chrome/131.0.0.0 Safari/537.36" version="24.8.4">
  <diagram name="Page-1" id="h0E_iuAlIU6PxYB0gCBw">
    <mxGraphModel dx="1224" dy="1909" grid="1" gridSize="10" guides="1" tooltips="1" connect="1" arrows="1" fold="1" page="1" pageScale="1" pageWidth="850" pageHeight="1100" math="0" shadow="0">
      <root>
        <mxCell id="0" />
        <mxCell id="1" parent="0" />
        <mxCell id="E9KsuS24jy04QDy377IY-4" value="AIR C AND C&lt;div style=&quot;font-size: 40px;&quot;&gt;&lt;br style=&quot;font-size: 40px;&quot;&gt;&lt;/div&gt;" style="text;html=1;align=center;verticalAlign=middle;resizable=0;points=[];autosize=1;strokeColor=none;fillColor=none;fontSize=40;fontStyle=5" vertex="1" parent="1">
          <mxGeometry x="310" y="-770" width="260" height="110" as="geometry" />
        </mxCell>
        <mxCell id="E9KsuS24jy04QDy377IY-5" value="USER GOALS:&lt;div&gt;- Create/Update/Delete user account&lt;/div&gt;&lt;div&gt;- Book rentals for stay&lt;/div&gt;&lt;div&gt;- See rentals on map or list&lt;/div&gt;&lt;div&gt;&lt;br&gt;&lt;/div&gt;" style="text;html=1;align=left;verticalAlign=middle;resizable=0;points=[];autosize=1;strokeColor=none;fillColor=none;" vertex="1" parent="1">
          <mxGeometry x="30" y="-732" width="220" height="90" as="geometry" />
        </mxCell>
        <mxCell id="E9KsuS24jy04QDy377IY-8" value="" style="edgeStyle=orthogonalEdgeStyle;rounded=0;orthogonalLoop=1;jettySize=auto;html=1;" edge="1" parent="1" source="E9KsuS24jy04QDy377IY-6" target="E9KsuS24jy04QDy377IY-7">
          <mxGeometry relative="1" as="geometry" />
        </mxCell>
        <mxCell id="E9KsuS24jy04QDy377IY-6" value="USER" style="whiteSpace=wrap;html=1;" vertex="1" parent="1">
          <mxGeometry x="40" y="-610" width="120" height="60" as="geometry" />
        </mxCell>
        <mxCell id="E9KsuS24jy04QDy377IY-10" value="" style="edgeStyle=orthogonalEdgeStyle;rounded=0;orthogonalLoop=1;jettySize=auto;html=1;" edge="1" parent="1" source="E9KsuS24jy04QDy377IY-7" target="E9KsuS24jy04QDy377IY-9">
          <mxGeometry relative="1" as="geometry" />
        </mxCell>
        <mxCell id="E9KsuS24jy04QDy377IY-7" value="Browse Rental" style="whiteSpace=wrap;html=1;" vertex="1" parent="1">
          <mxGeometry x="240" y="-610" width="120" height="60" as="geometry" />
        </mxCell>
        <mxCell id="E9KsuS24jy04QDy377IY-12" value="" style="edgeStyle=orthogonalEdgeStyle;rounded=0;orthogonalLoop=1;jettySize=auto;html=1;" edge="1" parent="1" source="E9KsuS24jy04QDy377IY-9" target="E9KsuS24jy04QDy377IY-11">
          <mxGeometry relative="1" as="geometry" />
        </mxCell>
        <mxCell id="E9KsuS24jy04QDy377IY-9" value="Book Rental" style="whiteSpace=wrap;html=1;" vertex="1" parent="1">
          <mxGeometry x="440" y="-610" width="120" height="60" as="geometry" />
        </mxCell>
        <mxCell id="E9KsuS24jy04QDy377IY-11" value="Payment" style="whiteSpace=wrap;html=1;" vertex="1" parent="1">
          <mxGeometry x="640" y="-610" width="120" height="60" as="geometry" />
        </mxCell>
      </root>
    </mxGraphModel>
  </diagram>
</mxfile>
